<?xml version="1.0" encoding="utf-8"?>
<!-- Generator: Adobe Illustrator 28.1.0, SVG Export Plug-In . SVG Version: 6.00 Build 0)  -->
<svg version="1.1" xmlns="http://www.w3.org/2000/svg" xmlns:xlink="http://www.w3.org/1999/xlink" x="0px" y="0px"
	 viewBox="0 0 2160 2160" style="enable-background:new 0 0 2160 2160;" xml:space="preserve">
<style type="text/css">
	.st0{fill:none;stroke:#000000;stroke-width:75;stroke-miterlimit:10;}
	.st1{fill:none;stroke:#2C73DB;stroke-width:75;stroke-miterlimit:10;}
	.st2{font-family:'Bion-Bold';}
	.st3{font-size:200px;}
	.st4{fill:#2C73DB;}
</style>
<g id="Layer_1">
</g>
<g id="Layer_2">
	<g>
		<rect x="696.76" y="1007.64" width="73" height="609"/>
		<path class="st0" d="M869.46,1213.51c-89.95-67.81-148.2-176.21-148.2-298.37c0-205.45,164.76-372,368-372s368,166.55,368,372
			c0,110.26-47.45,209.32-122.84,277.43"/>
		<path class="st1" d="M915.42,1243.09c51.77,28.11,110.96,44.05,173.84,44.05c74.9,0,144.57-22.62,202.7-61.48"/>
		<text transform="matrix(1 0 0 1 770.2556 1616.7573)" class="st2 st3">artner</text>
		<rect x="1061.76" y="741.51" width="240" height="75.13"/>
		<rect x="939" y="864.39" transform="matrix(6.123234e-17 -1 1 6.123234e-17 197.3656 2027.6411)" width="347" height="101.49"/>
		<rect x="907.41" y="741.18" width="120.35" height="75.13"/>
		
			<rect x="854.21" y="945.09" transform="matrix(6.123234e-17 -1 1 6.123234e-17 -8.4277 1942.8478)" class="st4" width="226" height="61.09"/>
	</g>
</g>
</svg>
